<?xml version="1.0" encoding="iso-8859-1"?>
<!-- Generator: Adobe Illustrator 19.0.0, SVG Export Plug-In . SVG Version: 6.00 Build 0)  -->
<svg version="1.1" id="Capa_1" xmlns="http://www.w3.org/2000/svg" xmlns:xlink="http://www.w3.org/1999/xlink" x="0px" y="0px"
	 viewBox="0 0 467.313 467.313" style="enable-background:new 0 0 467.313 467.313;" xml:space="preserve">
<path id="XMLID_2371_" d="M82.22,274.936c0.002-0.095,0.002-0.189,0-0.284v-21.676h50.246v19.166
	c0,20.492,16.672,37.164,37.164,37.164h266.088c3.697,0,7.019-2.261,8.374-5.701c1.354-3.439,0.469-7.358-2.235-9.88L331.12,190.436
	L441.856,87.147c2.704-2.522,3.59-6.441,2.235-9.88c-1.355-3.44-4.677-5.701-8.374-5.701H260.335V24.237c0-4.971-4.029-9-9-9H169.63
	c-0.155,0-0.312,0.001-0.466,0.003H82.22c0,0,0.001-1.279,0.001-1.322C82.221,4.683,72.19,0,52.409,0
	C32.627,0,22.597,4.683,22.597,13.918v56.121c-0.002,0.094-0.002,0.189,0,0.284v57.46c-0.002,0.094-0.002,0.189,0,0.284v57.46
	c-0.002,0.094-0.002,0.189,0,0.284v57.458c-0.002,0.095-0.002,0.191,0,0.287v57.46c-0.002,0.094-0.002,0.189,0,0.284v57.461
	c-0.002,0.094-0.002,0.189,0,0.284v57.459c-0.002,0.094-0.002,0.189,0,0.284v36.611c0,9.234,10.03,13.917,29.813,13.917
	c19.781,0,29.812-4.682,29.812-13.917c0-0.036,0-0.075-0.001-0.115 M64.22,448.296c-2.567,0.518-6.593,1.017-11.811,1.017
	c-5.219,0-9.245-0.5-11.813-1.018V421.59l23.623-14.952V448.296z M64.22,385.336l-23.623,14.952v-36.441l23.623-14.952V385.336z
	 M64.22,327.592l-23.623,14.952v-36.442L64.22,291.15V327.592z M64.22,269.848L40.597,284.8v-36.443l23.623-14.952V269.848z
	 M64.22,212.103l-23.623,14.952v-36.44l23.623-14.952V212.103z M64.22,154.359l-23.623,14.953V132.87l23.623-14.952V154.359z
	 M64.22,96.615l-23.623,14.952V75.126L64.22,60.174V96.615z M64.22,38.872L40.597,53.824V19.018C43.164,18.5,47.19,18,52.409,18
	c5.217,0,9.243,0.5,11.811,1.018V38.872z M132.466,52.402v182.574H82.22v-17.788c0.002-0.093,0.002-0.187,0-0.28v-57.461
	c0.002-0.095,0.002-0.189,0-0.284v-57.463c0.002-0.093,0.002-0.187,0-0.28V43.96c0.002-0.095,0.002-0.189,0-0.284V33.24h55.577
	C134.414,38.838,132.466,45.398,132.466,52.402z M169.295,33.24h15.321c0.077,0,0.153-0.001,0.23-0.003h57.488v38.329H169.63
	c-10.567,0-19.164-8.597-19.164-19.165C150.466,41.946,158.882,33.419,169.295,33.24z M169.63,291.306
	c-10.567,0-19.164-8.598-19.164-19.166V84.233c5.599,3.383,12.158,5.332,19.164,5.332h243.244l-101.087,94.289
	c-1.825,1.703-2.861,4.086-2.861,6.582s1.036,4.879,2.861,6.582l101.087,94.289H169.63z"/>
<g>
</g>
<g>
</g>
<g>
</g>
<g>
</g>
<g>
</g>
<g>
</g>
<g>
</g>
<g>
</g>
<g>
</g>
<g>
</g>
<g>
</g>
<g>
</g>
<g>
</g>
<g>
</g>
<g>
</g>
</svg>
